<?xml version="1.0" standalone="no"?>
<!DOCTYPE svg PUBLIC "-//W3C//DTD SVG 20010904//EN"
 "http://www.w3.org/TR/2001/REC-SVG-20010904/DTD/svg10.dtd">
<svg version="1.0" xmlns="http://www.w3.org/2000/svg"
 width="1080.000000pt" height="1080.000000pt" viewBox="0 0 1080.000000 1080.000000"
 preserveAspectRatio="xMidYMid meet">
<metadata>
Created by potrace 1.14, written by Peter Selinger 2001-2017
</metadata>
<g transform="translate(0.000000,1080.000000) scale(0.100000,-0.100000)"
fill="#000000" stroke="none">
<path d="M5063 8507 c-99 -62 -143 -95 -220 -167 -43 -40 -88 -79 -101 -88
-49 -32 -145 -128 -162 -162 -10 -19 -28 -80 -41 -135 -24 -100 -24 -102 -22
-660 1 -308 6 -591 11 -630 6 -43 6 -80 0 -95 -5 -13 -36 -50 -69 -82 -84 -82
-79 -101 20 -86 30 5 58 5 62 1 4 -4 13 -78 19 -163 6 -85 18 -204 26 -264 7
-60 14 -140 14 -178 0 -37 6 -103 14 -145 8 -43 20 -149 26 -237 6 -87 17
-193 25 -235 8 -42 15 -101 15 -131 1 -30 7 -84 14 -119 21 -97 46 -103 138
-35 34 25 68 54 76 65 7 10 19 19 26 19 6 0 27 16 46 35 19 19 38 35 43 35 5
0 22 12 37 28 15 15 44 41 65 57 20 17 53 45 72 64 40 39 40 -1 4 331 -11 102
-25 212 -31 245 -5 33 -10 91 -10 128 0 37 -7 98 -14 135 -8 37 -20 139 -26
227 -6 88 -13 167 -16 176 -2 8 2 23 9 32 11 16 19 17 82 7 72 -12 83 -10 145
25 14 8 34 21 45 30 11 9 58 45 105 81 187 142 270 223 270 264 0 25 -76 43
-205 48 -137 4 -397 -12 -439 -28 -36 -13 -47 7 -57 108 -11 105 -29 651 -22
669 6 15 47 -41 58 -78 4 -13 13 -31 20 -39 7 -8 18 -31 23 -50 6 -19 26 -75
46 -125 20 -49 39 -107 43 -128 7 -45 42 -101 66 -105 16 -3 81 36 143 87 18
14 42 34 55 44 186 139 289 239 289 279 0 23 -38 146 -56 180 -8 14 -14 35
-14 45 0 10 -9 36 -20 58 -11 22 -20 44 -20 50 0 5 -27 63 -61 129 -53 105
-102 181 -135 211 -6 5 -33 37 -59 70 -68 86 -141 165 -188 203 -53 43 -95 43
-164 -1z"/>
<path d="M3714 8457 c-69 -49 -361 -286 -400 -324 -22 -23 -12 -96 21 -143 14
-20 25 -39 25 -42 0 -3 15 -33 34 -66 64 -113 76 -165 76 -327 0 -164 -16
-227 -76 -302 -19 -23 -34 -48 -34 -57 0 -22 32 -20 63 4 14 11 29 20 33 20 5
0 17 9 29 20 11 11 45 39 75 62 178 136 338 295 379 377 59 119 67 322 18 471
-53 159 -113 281 -156 318 -22 18 -52 14 -87 -11z"/>
<path d="M6522 8153 c-125 -93 -371 -301 -391 -330 -11 -18 -21 -41 -21 -52 0
-16 28 -162 47 -248 4 -19 -1 -23 -38 -33 -24 -6 -63 -16 -87 -22 -39 -10
-132 -71 -193 -127 -47 -43 -54 -49 -94 -75 -22 -15 -42 -30 -45 -34 -3 -4
-25 -22 -50 -41 -109 -84 -133 -124 -89 -154 15 -11 30 -13 52 -7 18 5 77 11
132 15 55 4 150 13 210 21 61 8 154 17 208 20 109 7 137 -4 137 -54 0 -14 8
-43 19 -66 54 -119 207 -658 232 -816 5 -30 16 -86 24 -125 24 -105 30 -387
12 -505 -20 -125 -41 -210 -73 -295 -14 -38 -32 -86 -40 -106 -14 -38 -49
-113 -65 -139 -5 -8 -13 -24 -18 -36 -5 -12 -23 -36 -41 -55 -17 -19 -45 -56
-62 -83 -25 -38 -29 -52 -21 -65 15 -23 59 -17 106 16 22 15 47 33 56 38 9 6
28 20 41 33 29 27 30 27 140 119 131 109 173 156 265 293 63 94 148 261 161
316 4 16 15 46 25 66 11 21 19 49 19 63 0 14 7 42 16 63 9 20 20 69 24 107 5
39 13 110 19 158 11 87 8 142 -19 377 -5 47 -16 103 -24 125 -8 22 -15 59 -16
81 0 23 -6 57 -14 75 -8 19 -19 63 -26 99 -6 36 -17 83 -24 105 -19 56 -50
194 -45 199 5 5 70 -7 167 -30 68 -16 75 -16 105 0 43 22 94 59 137 99 19 18
80 69 135 113 138 112 168 147 159 188 -9 41 -9 42 -47 62 -60 31 -209 46
-517 50 -162 2 -300 6 -306 8 -6 2 -14 22 -17 44 -4 22 -13 45 -21 51 -7 6
-17 39 -20 73 -4 33 -14 70 -21 82 -8 11 -18 49 -24 83 -5 34 -14 70 -19 80
-5 10 -13 51 -17 90 -8 81 -32 123 -69 123 -13 0 -46 -17 -74 -37z"/>
<path d="M2980 7629 c-14 -11 -73 -58 -132 -105 -59 -46 -112 -93 -118 -103
-5 -11 -19 -22 -30 -26 -18 -6 -48 -46 -114 -155 -61 -100 -96 -163 -96 -172
0 -5 -11 -30 -25 -56 -14 -26 -25 -54 -25 -62 0 -9 -6 -25 -14 -36 -43 -61
-161 -428 -191 -594 -15 -84 -46 -170 -61 -170 -8 0 -45 91 -64 160 -18 67
-30 104 -60 180 -27 68 -60 174 -60 193 0 9 -9 34 -20 54 -11 21 -20 43 -20
49 0 20 -29 36 -53 31 -22 -6 -102 -61 -162 -111 -258 -216 -285 -245 -285
-309 0 -31 -23 -79 -32 -67 -14 17 -48 83 -48 92 0 12 -12 38 -119 260 -33 70
-61 129 -61 131 0 9 -124 234 -137 249 -17 19 -47 70 -67 113 -8 17 -24 39
-35 49 -12 11 -21 24 -21 30 0 6 -20 40 -45 76 -25 36 -57 82 -70 102 -41 62
-79 60 -157 -6 -20 -17 -48 -39 -63 -50 -15 -10 -35 -32 -46 -50 -17 -29 -19
-53 -19 -304 l0 -273 48 -89 c26 -49 59 -110 74 -137 14 -26 41 -77 58 -113
18 -36 38 -72 46 -80 7 -9 20 -34 27 -55 8 -22 29 -71 47 -110 84 -181 98
-212 109 -246 6 -20 20 -53 31 -74 11 -22 20 -51 20 -66 0 -15 6 -32 14 -38 8
-7 17 -30 21 -52 4 -21 10 -41 15 -44 4 -3 22 -51 40 -107 17 -57 38 -116 45
-133 8 -16 17 -46 20 -65 4 -19 16 -64 26 -100 11 -36 23 -87 28 -115 5 -27
19 -88 31 -135 12 -47 28 -120 35 -164 17 -95 27 -109 69 -100 30 6 129 65
141 84 3 5 41 35 83 67 42 32 109 89 147 127 l70 70 5 103 c3 56 10 107 17
114 19 19 50 -6 57 -48 4 -21 16 -60 26 -88 10 -27 28 -84 40 -125 12 -41 30
-97 40 -125 9 -27 32 -94 49 -148 42 -132 66 -177 94 -177 21 0 129 75 185
128 15 15 59 52 97 82 108 87 145 121 161 151 11 22 14 81 14 281 0 283 24
734 45 868 3 19 13 87 21 150 9 63 22 147 29 185 36 192 47 244 60 286 8 26
15 54 15 63 0 8 9 44 19 78 11 35 34 112 52 172 50 171 99 294 194 487 33 67
45 103 40 118 -8 26 -23 26 -55 0z"/>
<path d="M9350 7612 c-8 -5 -49 -14 -90 -21 -157 -26 -319 -57 -385 -75 -27
-8 -76 -17 -109 -21 -32 -4 -79 -13 -105 -21 -25 -7 -73 -17 -106 -20 -33 -4
-71 -12 -85 -19 -14 -7 -52 -16 -85 -20 -33 -5 -89 -16 -125 -26 -36 -11 -81
-19 -100 -19 -20 0 -46 -7 -59 -17 -15 -10 -59 -19 -120 -25 -101 -9 -135 -23
-144 -59 -8 -31 55 -94 221 -222 272 -208 285 -215 342 -182 14 8 41 14 62 15
20 0 65 9 100 20 34 11 95 23 133 26 l70 7 -50 -54 c-27 -30 -57 -60 -66 -66
-9 -7 -46 -48 -82 -92 -37 -43 -76 -90 -89 -103 -13 -13 -49 -53 -82 -88 -32
-36 -79 -87 -105 -115 -26 -27 -85 -93 -130 -145 -81 -92 -202 -225 -327 -359
-34 -36 -77 -84 -95 -106 -34 -41 -39 -47 -85 -100 -15 -16 -72 -77 -128 -135
-221 -230 -236 -249 -236 -299 0 -32 3 -35 75 -96 26 -22 55 -47 64 -56 23
-23 181 -149 186 -149 3 0 32 -21 64 -46 39 -30 72 -47 97 -50 39 -5 40 -4
137 104 53 60 123 134 155 165 83 80 232 197 251 197 5 0 14 6 18 14 4 7 22
21 38 30 17 10 48 28 70 42 22 13 58 33 80 44 22 11 47 24 55 28 8 5 38 19 65
32 28 12 68 31 90 41 66 31 126 50 200 64 39 8 84 19 100 25 49 19 431 16 476
-4 21 -8 61 -20 90 -25 91 -16 246 -81 384 -161 28 -16 61 -34 74 -40 13 -6
29 -17 35 -24 6 -8 36 -34 66 -58 30 -24 89 -72 132 -106 42 -34 81 -62 86
-62 5 0 12 -7 16 -15 3 -8 22 -23 42 -32 35 -17 36 -17 50 2 27 36 25 39 -137
186 -110 100 -233 203 -309 259 -34 25 -96 72 -138 105 -101 78 -321 225 -337
225 -7 0 -23 8 -36 19 -13 10 -40 22 -59 26 -19 4 -46 16 -59 26 -13 11 -33
19 -45 19 -11 0 -34 9 -51 20 -16 11 -38 20 -47 20 -10 0 -37 9 -60 19 -24 10
-70 24 -103 31 -119 24 -136 28 -142 33 -3 3 22 37 56 74 33 37 61 72 61 76 0
5 36 43 81 85 44 42 120 124 169 182 48 58 125 144 171 191 116 119 159 166
159 174 0 8 45 58 158 176 75 78 83 90 80 120 -2 27 -15 43 -68 86 -65 54
-103 86 -193 166 -47 41 -102 81 -180 133 -43 28 -85 38 -107 26z"/>
<path d="M3875 7208 c-20 -11 -57 -40 -125 -98 -19 -17 -83 -68 -142 -115
-159 -126 -177 -156 -153 -259 21 -88 19 -123 -7 -147 -13 -11 -80 -70 -150
-130 -71 -61 -128 -115 -128 -120 0 -31 186 -42 241 -13 17 8 45 14 62 12 l32
-3 8 -80 c4 -44 22 -190 39 -325 17 -135 34 -283 38 -330 16 -162 30 -282 36
-291 3 -5 12 -69 20 -142 29 -261 40 -317 67 -317 13 0 165 108 201 142 8 7
37 31 66 53 89 68 190 156 200 175 15 27 12 151 -5 249 -17 101 -29 200 -50
406 -9 83 -20 164 -26 180 -5 17 -14 80 -20 140 -5 61 -16 142 -24 182 -8 40
-15 94 -15 120 0 26 -5 95 -11 153 l-12 106 29 44 c54 84 36 222 -48 367 -12
21 -27 41 -33 45 -15 11 -67 9 -90 -4z"/>
<path d="M3045 4310 c-16 -6 -64 -14 -105 -19 -42 -6 -89 -17 -105 -25 -17 -9
-35 -16 -40 -16 -16 0 -155 -130 -155 -144 0 -7 -9 -21 -20 -31 -11 -10 -20
-24 -20 -32 0 -8 -9 -31 -19 -51 -11 -20 -28 -80 -38 -132 -15 -83 -18 -160
-19 -630 -1 -514 5 -683 25 -798 11 -60 56 -179 77 -203 8 -8 14 -20 14 -26 0
-17 122 -132 168 -158 38 -21 70 -32 192 -65 55 -15 224 -12 267 4 21 8 57 20
79 26 101 25 206 114 272 228 31 53 44 90 60 177 19 101 21 158 26 716 3 334
1 633 -4 665 -28 186 -52 250 -128 341 -41 50 -121 113 -144 113 -5 0 -27 9
-47 19 -58 32 -280 58 -336 41z m122 -486 c21 -28 25 -172 21 -749 -3 -610 -3
-608 -53 -621 -34 -8 -82 13 -89 39 -3 12 -6 309 -6 660 l0 639 30 30 c25 24
36 29 58 23 15 -3 32 -13 39 -21z"/>
<path d="M5615 4311 c-11 -5 -49 -12 -85 -15 -82 -9 -189 -59 -256 -119 -55
-49 -118 -164 -134 -244 -40 -197 -40 -194 -40 -817 0 -568 1 -614 20 -706 46
-227 160 -348 395 -419 95 -29 248 -29 330 -1 32 11 70 20 85 20 15 0 39 9 53
20 14 11 30 20 35 20 31 0 182 147 182 176 0 5 8 25 19 44 10 19 28 82 40 140
18 90 21 139 21 337 0 227 0 233 -21 244 -25 13 -439 17 -476 5 l-23 -7 0
-245 0 -245 -25 -24 c-30 -31 -75 -33 -101 -4 -18 20 -19 46 -19 663 0 352 3
653 7 667 9 31 50 52 84 43 47 -12 54 -45 54 -267 0 -175 2 -206 16 -218 12
-10 69 -13 236 -13 219 -1 220 -1 239 23 17 21 19 42 19 235 0 294 -23 399
-114 510 -49 60 -128 124 -164 133 -15 3 -38 14 -51 25 -14 11 -40 18 -65 18
-22 0 -68 7 -101 15 -66 16 -129 18 -160 6z"/>
<path d="M8040 4304 c-25 -7 -66 -13 -92 -13 -26 -1 -50 -5 -53 -11 -3 -5 -25
-18 -48 -28 -41 -19 -92 -65 -141 -127 -31 -40 -76 -126 -76 -145 0 -9 -8 -27
-17 -40 -16 -22 -18 -50 -18 -210 0 -153 3 -190 16 -210 9 -14 19 -38 23 -54
4 -16 16 -41 27 -54 10 -14 19 -31 19 -38 0 -7 7 -17 16 -22 8 -5 21 -18 27
-29 53 -90 83 -123 309 -339 47 -45 108 -115 135 -156 44 -68 51 -85 62 -163
12 -85 8 -162 -11 -198 -14 -27 -70 -22 -107 9 l-31 26 0 174 c0 161 -2 176
-20 194 -11 11 -26 20 -32 21 -7 0 -102 2 -211 3 -190 3 -199 2 -213 -18 -11
-16 -14 -60 -13 -211 0 -104 4 -212 9 -240 29 -170 129 -322 253 -383 35 -18
73 -32 83 -32 11 0 48 -9 82 -20 87 -27 261 -28 329 -1 26 10 64 21 84 25 21
4 42 13 49 21 7 8 19 15 27 15 23 0 111 89 132 134 43 91 62 143 67 186 3 25
12 63 20 85 24 65 15 346 -14 453 -37 134 -113 261 -210 347 -18 17 -75 72
-125 124 -94 96 -117 119 -203 204 -85 82 -94 98 -96 168 -1 54 1 64 21 80 39
32 83 23 106 -22 10 -18 14 -54 13 -104 -1 -57 3 -80 14 -92 13 -12 51 -15
238 -14 263 1 265 1 256 86 -3 27 -10 92 -15 142 -11 103 -48 223 -87 280 -65
98 -201 183 -292 183 -20 0 -62 7 -92 15 -65 17 -138 17 -200 -1z"/>
<path d="M1339 4278 l-29 -18 0 -1107 c0 -610 4 -1113 8 -1119 19 -29 56 -34
252 -34 168 0 205 3 225 16 l25 16 0 423 c0 376 2 424 16 429 9 3 74 6 145 6
117 0 136 3 192 26 57 24 147 86 156 108 2 4 11 16 21 26 10 10 21 29 25 42 4
12 16 39 26 58 11 19 19 51 19 70 0 20 8 47 18 60 15 22 17 54 17 295 0 238
-2 274 -17 302 -10 18 -18 42 -18 55 0 13 -18 63 -39 111 -57 127 -119 183
-251 225 -60 20 -92 22 -414 24 -317 3 -352 1 -377 -14z m545 -463 c24 -10 43
-29 58 -58 21 -37 23 -56 23 -172 0 -120 -2 -133 -25 -174 -27 -47 -84 -86
-107 -72 -12 6 -14 49 -13 236 0 149 5 233 12 242 13 16 8 16 52 -2z"/>
<path d="M8800 4284 c-15 -7 -30 -22 -33 -35 -11 -41 -8 -364 4 -397 14 -41
34 -46 152 -43 66 2 102 -1 112 -9 13 -11 15 -126 15 -894 -1 -822 1 -882 17
-893 12 -10 74 -13 228 -13 192 0 213 2 228 18 15 17 17 97 19 903 l3 884 115
2 c158 2 150 -10 150 243 0 173 -2 200 -17 219 -18 22 -20 22 -492 24 -336 1
-482 -1 -501 -9z"/>
<path d="M3837 4272 c-16 -17 -17 -97 -17 -1130 l0 -1111 32 -17 c29 -15 71
-16 408 -12 356 5 378 7 430 27 72 29 145 84 178 134 44 66 83 147 93 196 39
186 40 205 38 771 -1 305 -5 603 -9 661 -14 176 -55 284 -138 367 -60 59 -93
82 -157 106 -46 18 -84 20 -445 23 -378 4 -397 3 -413 -15z m608 -446 c16 -16
25 -40 30 -77 3 -30 5 -325 3 -656 -3 -683 3 -636 -85 -637 l-48 -1 -5 685
c-5 749 -8 710 52 710 17 0 39 -10 53 -24z"/>
<path d="M6526 4274 c-9 -9 -16 -32 -16 -55 0 -22 -5 -70 -10 -107 -15 -92
-61 -621 -71 -822 -5 -91 -16 -194 -24 -230 -8 -36 -17 -137 -21 -224 -3 -91
-12 -176 -20 -198 -7 -21 -16 -98 -19 -171 -4 -72 -13 -163 -21 -202 -7 -38
-15 -108 -16 -154 -3 -82 -2 -85 22 -98 38 -19 423 -18 443 1 8 9 17 46 21 92
3 43 11 105 17 139 6 33 13 70 15 82 4 20 10 22 107 25 60 2 105 -1 109 -7 4
-5 8 -44 8 -85 2 -136 14 -207 40 -235 l23 -25 198 0 c259 0 242 -15 229 191
-5 86 -16 189 -24 230 -8 41 -17 135 -21 209 -4 74 -13 160 -20 190 -7 30 -16
118 -20 195 -4 77 -13 163 -21 190 -9 30 -17 113 -20 205 -3 85 -11 184 -19
220 -8 36 -17 128 -20 205 -4 77 -13 182 -21 234 -8 52 -14 116 -14 142 0 83
20 79 -415 79 -335 0 -386 -2 -399 -16z m433 -1004 c6 -36 11 -115 11 -176 0
-71 7 -141 19 -197 26 -119 24 -123 -52 -122 l-62 1 -3 112 c-1 65 4 160 13
225 9 62 18 182 21 267 3 85 8 162 11 170 3 8 12 -37 19 -100 6 -63 17 -144
23 -180z"/>
</g>
</svg>
